<mxfile host="app.diagrams.net" agent="Mozilla/5.0 (Macintosh; Intel Mac OS X 10_15_7) AppleWebKit/537.36 (KHTML, like Gecko) Chrome/135.0.0.0 Safari/537.36" version="26.2.14">
  <diagram name="Page-1" id="UkTFOH_HNtyWAt8MsTWL">
    <mxGraphModel dx="1198" dy="1940" grid="1" gridSize="10" guides="1" tooltips="1" connect="1" arrows="1" fold="1" page="1" pageScale="1" pageWidth="827" pageHeight="1169" math="0" shadow="0">
      <root>
        <mxCell id="0" />
        <mxCell id="1" parent="0" />
        <mxCell id="cS2rsKpgbuqBA1cA0iCn-28" value="" style="rounded=0;whiteSpace=wrap;html=1;" vertex="1" parent="1">
          <mxGeometry x="80" y="-20" width="640" height="520" as="geometry" />
        </mxCell>
        <mxCell id="cS2rsKpgbuqBA1cA0iCn-2" value="Investor" style="rounded=1;whiteSpace=wrap;html=1;" vertex="1" parent="1">
          <mxGeometry x="120" y="210" width="120" height="60" as="geometry" />
        </mxCell>
        <mxCell id="cS2rsKpgbuqBA1cA0iCn-10" style="edgeStyle=orthogonalEdgeStyle;rounded=0;orthogonalLoop=1;jettySize=auto;html=1;entryX=0.12;entryY=0.836;entryDx=0;entryDy=0;exitX=0.25;exitY=0;exitDx=0;exitDy=0;entryPerimeter=0;" edge="1" parent="1" source="cS2rsKpgbuqBA1cA0iCn-3" target="cS2rsKpgbuqBA1cA0iCn-6">
          <mxGeometry relative="1" as="geometry">
            <mxPoint x="399.76" y="362" as="sourcePoint" />
            <mxPoint x="400.0799999999999" y="270" as="targetPoint" />
          </mxGeometry>
        </mxCell>
        <mxCell id="cS2rsKpgbuqBA1cA0iCn-23" style="edgeStyle=orthogonalEdgeStyle;rounded=0;orthogonalLoop=1;jettySize=auto;html=1;exitX=0.75;exitY=0;exitDx=0;exitDy=0;entryX=0.883;entryY=0.837;entryDx=0;entryDy=0;entryPerimeter=0;" edge="1" parent="1" source="cS2rsKpgbuqBA1cA0iCn-3" target="cS2rsKpgbuqBA1cA0iCn-6">
          <mxGeometry relative="1" as="geometry" />
        </mxCell>
        <mxCell id="cS2rsKpgbuqBA1cA0iCn-3" value="Agent" style="rounded=1;whiteSpace=wrap;html=1;" vertex="1" parent="1">
          <mxGeometry x="340" y="400" width="120" height="60" as="geometry" />
        </mxCell>
        <mxCell id="cS2rsKpgbuqBA1cA0iCn-4" value="Admin / Compliance" style="rounded=1;whiteSpace=wrap;html=1;" vertex="1" parent="1">
          <mxGeometry x="560" y="210" width="120" height="60" as="geometry" />
        </mxCell>
        <mxCell id="cS2rsKpgbuqBA1cA0iCn-15" style="edgeStyle=orthogonalEdgeStyle;rounded=0;orthogonalLoop=1;jettySize=auto;html=1;exitX=0.25;exitY=1;exitDx=0;exitDy=0;entryX=0.126;entryY=0.159;entryDx=0;entryDy=0;entryPerimeter=0;" edge="1" parent="1" source="cS2rsKpgbuqBA1cA0iCn-5" target="cS2rsKpgbuqBA1cA0iCn-6">
          <mxGeometry relative="1" as="geometry" />
        </mxCell>
        <mxCell id="cS2rsKpgbuqBA1cA0iCn-5" value="HQ Staffs" style="rounded=1;whiteSpace=wrap;html=1;" vertex="1" parent="1">
          <mxGeometry x="340" y="20" width="120" height="60" as="geometry" />
        </mxCell>
        <mxCell id="cS2rsKpgbuqBA1cA0iCn-6" value="MTFT Platform" style="ellipse;whiteSpace=wrap;html=1;aspect=fixed;" vertex="1" parent="1">
          <mxGeometry x="360" y="200" width="80" height="80" as="geometry" />
        </mxCell>
        <mxCell id="cS2rsKpgbuqBA1cA0iCn-7" style="edgeStyle=orthogonalEdgeStyle;rounded=0;orthogonalLoop=1;jettySize=auto;html=1;exitX=1;exitY=0.25;exitDx=0;exitDy=0;entryX=0.031;entryY=0.306;entryDx=0;entryDy=0;entryPerimeter=0;" edge="1" parent="1" source="cS2rsKpgbuqBA1cA0iCn-2" target="cS2rsKpgbuqBA1cA0iCn-6">
          <mxGeometry relative="1" as="geometry">
            <mxPoint x="360" y="226" as="targetPoint" />
          </mxGeometry>
        </mxCell>
        <mxCell id="cS2rsKpgbuqBA1cA0iCn-8" style="edgeStyle=orthogonalEdgeStyle;rounded=0;orthogonalLoop=1;jettySize=auto;html=1;exitX=1;exitY=0.75;exitDx=0;exitDy=0;entryX=0.031;entryY=0.689;entryDx=0;entryDy=0;entryPerimeter=0;" edge="1" parent="1" source="cS2rsKpgbuqBA1cA0iCn-2" target="cS2rsKpgbuqBA1cA0iCn-6">
          <mxGeometry relative="1" as="geometry" />
        </mxCell>
        <mxCell id="cS2rsKpgbuqBA1cA0iCn-9" value="Buy / sell assets" style="text;html=1;align=center;verticalAlign=middle;whiteSpace=wrap;rounded=0;" vertex="1" parent="1">
          <mxGeometry x="240" y="190" width="100" height="30" as="geometry" />
        </mxCell>
        <mxCell id="cS2rsKpgbuqBA1cA0iCn-12" value="Onboard investors" style="text;html=1;align=center;verticalAlign=middle;whiteSpace=wrap;rounded=0;" vertex="1" parent="1">
          <mxGeometry x="250" y="340" width="110" height="30" as="geometry" />
        </mxCell>
        <mxCell id="cS2rsKpgbuqBA1cA0iCn-13" style="edgeStyle=orthogonalEdgeStyle;rounded=0;orthogonalLoop=1;jettySize=auto;html=1;exitX=0;exitY=0.25;exitDx=0;exitDy=0;entryX=0.965;entryY=0.318;entryDx=0;entryDy=0;entryPerimeter=0;" edge="1" parent="1" source="cS2rsKpgbuqBA1cA0iCn-4" target="cS2rsKpgbuqBA1cA0iCn-6">
          <mxGeometry relative="1" as="geometry" />
        </mxCell>
        <mxCell id="cS2rsKpgbuqBA1cA0iCn-14" style="edgeStyle=orthogonalEdgeStyle;rounded=0;orthogonalLoop=1;jettySize=auto;html=1;exitX=0;exitY=0.75;exitDx=0;exitDy=0;entryX=0.966;entryY=0.692;entryDx=0;entryDy=0;entryPerimeter=0;" edge="1" parent="1" source="cS2rsKpgbuqBA1cA0iCn-4" target="cS2rsKpgbuqBA1cA0iCn-6">
          <mxGeometry relative="1" as="geometry" />
        </mxCell>
        <mxCell id="cS2rsKpgbuqBA1cA0iCn-16" style="edgeStyle=orthogonalEdgeStyle;rounded=0;orthogonalLoop=1;jettySize=auto;html=1;exitX=0.75;exitY=1;exitDx=0;exitDy=0;entryX=0.876;entryY=0.168;entryDx=0;entryDy=0;entryPerimeter=0;" edge="1" parent="1" source="cS2rsKpgbuqBA1cA0iCn-5" target="cS2rsKpgbuqBA1cA0iCn-6">
          <mxGeometry relative="1" as="geometry">
            <mxPoint x="430" y="210" as="targetPoint" />
          </mxGeometry>
        </mxCell>
        <mxCell id="cS2rsKpgbuqBA1cA0iCn-18" value="Verify KYC" style="text;html=1;align=left;verticalAlign=middle;whiteSpace=wrap;rounded=0;" vertex="1" parent="1">
          <mxGeometry x="450" y="190" width="110" height="30" as="geometry" />
        </mxCell>
        <mxCell id="cS2rsKpgbuqBA1cA0iCn-21" value="Handle credentials" style="text;html=1;align=left;verticalAlign=middle;whiteSpace=wrap;rounded=0;" vertex="1" parent="1">
          <mxGeometry x="450" y="260" width="110" height="30" as="geometry" />
        </mxCell>
        <mxCell id="cS2rsKpgbuqBA1cA0iCn-22" value="Submit KYC" style="text;html=1;align=center;verticalAlign=middle;whiteSpace=wrap;rounded=0;" vertex="1" parent="1">
          <mxGeometry x="240" y="260" width="80" height="30" as="geometry" />
        </mxCell>
        <mxCell id="cS2rsKpgbuqBA1cA0iCn-24" value="Process KYC" style="text;html=1;align=center;verticalAlign=middle;whiteSpace=wrap;rounded=0;" vertex="1" parent="1">
          <mxGeometry x="430" y="340" width="110" height="30" as="geometry" />
        </mxCell>
        <mxCell id="cS2rsKpgbuqBA1cA0iCn-26" value="Update Products" style="text;html=1;align=center;verticalAlign=middle;whiteSpace=wrap;rounded=0;" vertex="1" parent="1">
          <mxGeometry x="260" y="120" width="100" height="30" as="geometry" />
        </mxCell>
        <mxCell id="cS2rsKpgbuqBA1cA0iCn-27" value="Reconcile sales" style="text;html=1;align=center;verticalAlign=middle;whiteSpace=wrap;rounded=0;" vertex="1" parent="1">
          <mxGeometry x="450" y="120" width="100" height="30" as="geometry" />
        </mxCell>
      </root>
    </mxGraphModel>
  </diagram>
</mxfile>
